<svg width="411" height="102" viewBox="0 0 411 102" fill="none" xmlns="http://www.w3.org/2000/svg">
<path d="M24.816 32.032C25.84 32.032 26.992 32.1173 28.272 32.288C29.6373 32.3733 30.96 32.544 32.24 32.8C33.52 32.9707 34.672 33.184 35.696 33.44C36.8053 33.6107 37.616 33.7813 38.128 33.952L36.08 44.32C35.1413 43.9787 33.5627 43.5947 31.344 43.168C29.2107 42.656 26.4373 42.4 23.024 42.4C20.8053 42.4 18.5867 42.656 16.368 43.168C14.2347 43.5947 12.8267 43.8933 12.144 44.064V100H0.240001V36.256C3.056 35.232 6.55467 34.2933 10.736 33.44C14.9173 32.5013 19.6107 32.032 24.816 32.032ZM45.903 66.848C45.903 60.96 46.7563 55.84 48.463 51.488C50.1697 47.0507 52.431 43.3813 55.247 40.48C58.063 37.5787 61.3057 35.4027 64.975 33.952C68.6443 32.5013 72.399 31.776 76.239 31.776C85.199 31.776 92.0683 34.592 96.847 40.224C101.626 45.7707 104.015 54.2613 104.015 65.696C104.015 66.208 104.015 66.8907 104.015 67.744C104.015 68.512 103.972 69.2373 103.887 69.92H58.319C58.831 76.832 60.8363 82.08 64.335 85.664C67.8337 89.248 73.295 91.04 80.719 91.04C84.9003 91.04 88.399 90.6987 91.215 90.016C94.1163 89.248 96.2923 88.5227 97.743 87.84L99.407 97.824C97.9563 98.592 95.3963 99.4027 91.727 100.256C88.143 101.109 84.047 101.536 79.439 101.536C73.6363 101.536 68.6017 100.683 64.335 98.976C60.1537 97.184 56.6977 94.752 53.967 91.68C51.2363 88.608 49.1883 84.9813 47.823 80.8C46.543 76.5333 45.903 71.8827 45.903 66.848ZM91.599 60.32C91.6843 54.944 90.319 50.5493 87.503 47.136C84.7723 43.6373 80.975 41.888 76.111 41.888C73.3803 41.888 70.9483 42.4427 68.815 43.552C66.767 44.576 65.0177 45.9413 63.567 47.648C62.1163 49.3547 60.9643 51.3173 60.111 53.536C59.343 55.7547 58.831 58.016 58.575 60.32H91.599ZM141.083 101.28C133.744 101.109 128.539 99.5307 125.467 96.544C122.395 93.5573 120.859 88.9067 120.859 82.592V2.71999L132.763 0.671997V80.672C132.763 82.6347 132.934 84.256 133.275 85.536C133.616 86.816 134.171 87.84 134.939 88.608C135.707 89.376 136.731 89.9733 138.011 90.4C139.291 90.7413 140.87 91.04 142.747 91.296L141.083 101.28ZM152.403 66.848C152.403 60.96 153.256 55.84 154.963 51.488C156.67 47.0507 158.931 43.3813 161.747 40.48C164.563 37.5787 167.806 35.4027 171.475 33.952C175.144 32.5013 178.899 31.776 182.739 31.776C191.699 31.776 198.568 34.592 203.347 40.224C208.126 45.7707 210.515 54.2613 210.515 65.696C210.515 66.208 210.515 66.8907 210.515 67.744C210.515 68.512 210.472 69.2373 210.387 69.92H164.819C165.331 76.832 167.336 82.08 170.835 85.664C174.334 89.248 179.795 91.04 187.219 91.04C191.4 91.04 194.899 90.6987 197.715 90.016C200.616 89.248 202.792 88.5227 204.243 87.84L205.907 97.824C204.456 98.592 201.896 99.4027 198.227 100.256C194.643 101.109 190.547 101.536 185.939 101.536C180.136 101.536 175.102 100.683 170.835 98.976C166.654 97.184 163.198 94.752 160.467 91.68C157.736 88.608 155.688 84.9813 154.323 80.8C153.043 76.5333 152.403 71.8827 152.403 66.848ZM198.099 60.32C198.184 54.944 196.819 50.5493 194.003 47.136C191.272 43.6373 187.475 41.888 182.611 41.888C179.88 41.888 177.448 42.4427 175.315 43.552C173.267 44.576 171.518 45.9413 170.067 47.648C168.616 49.3547 167.464 51.3173 166.611 53.536C165.843 55.7547 165.331 58.016 165.075 60.32H198.099ZM223.903 66.848C223.903 60.96 224.756 55.84 226.463 51.488C228.17 47.0507 230.431 43.3813 233.247 40.48C236.063 37.5787 239.306 35.4027 242.975 33.952C246.644 32.5013 250.399 31.776 254.239 31.776C263.199 31.776 270.068 34.592 274.847 40.224C279.626 45.7707 282.015 54.2613 282.015 65.696C282.015 66.208 282.015 66.8907 282.015 67.744C282.015 68.512 281.972 69.2373 281.887 69.92H236.319C236.831 76.832 238.836 82.08 242.335 85.664C245.834 89.248 251.295 91.04 258.719 91.04C262.9 91.04 266.399 90.6987 269.215 90.016C272.116 89.248 274.292 88.5227 275.743 87.84L277.407 97.824C275.956 98.592 273.396 99.4027 269.727 100.256C266.143 101.109 262.047 101.536 257.439 101.536C251.636 101.536 246.602 100.683 242.335 98.976C238.154 97.184 234.698 94.752 231.967 91.68C229.236 88.608 227.188 84.9813 225.823 80.8C224.543 76.5333 223.903 71.8827 223.903 66.848ZM269.599 60.32C269.684 54.944 268.319 50.5493 265.503 47.136C262.772 43.6373 258.975 41.888 254.111 41.888C251.38 41.888 248.948 42.4427 246.815 43.552C244.767 44.576 243.018 45.9413 241.567 47.648C240.116 49.3547 238.964 51.3173 238.111 53.536C237.343 55.7547 236.831 58.016 236.575 60.32H269.599ZM314.603 91.424C319.467 91.424 323.051 90.784 325.355 89.504C327.744 88.224 328.939 86.176 328.939 83.36C328.939 80.4587 327.787 78.1547 325.483 76.448C323.179 74.7413 319.382 72.8213 314.091 70.688C311.531 69.664 309.056 68.64 306.667 67.616C304.363 66.5067 302.358 65.2267 300.651 63.776C298.944 62.3253 297.579 60.576 296.555 58.528C295.531 56.48 295.019 53.9627 295.019 50.976C295.019 45.088 297.195 40.4373 301.547 37.024C305.899 33.5253 311.83 31.776 319.339 31.776C321.216 31.776 323.094 31.904 324.971 32.16C326.848 32.3307 328.598 32.5867 330.219 32.928C331.84 33.184 333.248 33.4827 334.443 33.824C335.723 34.1653 336.704 34.464 337.387 34.72L335.211 44.96C333.931 44.2773 331.926 43.5947 329.195 42.912C326.464 42.144 323.179 41.76 319.339 41.76C316.011 41.76 313.11 42.4427 310.635 43.808C308.16 45.088 306.923 47.136 306.923 49.952C306.923 51.4027 307.179 52.6827 307.691 53.792C308.288 54.9013 309.142 55.9253 310.251 56.864C311.446 57.7173 312.896 58.528 314.603 59.296C316.31 60.064 318.358 60.8747 320.747 61.728C323.904 62.9227 326.72 64.1173 329.195 65.312C331.67 66.4213 333.76 67.744 335.467 69.28C337.259 70.816 338.624 72.6933 339.563 74.912C340.502 77.0453 340.971 79.6907 340.971 82.848C340.971 88.992 338.667 93.6427 334.059 96.8C329.536 99.9573 323.051 101.536 314.603 101.536C308.715 101.536 304.107 101.024 300.779 100C297.451 99.0613 295.19 98.336 293.995 97.824L296.171 87.584C297.536 88.096 299.712 88.864 302.699 89.888C305.686 90.912 309.654 91.424 314.603 91.424ZM352.528 66.848C352.528 60.96 353.381 55.84 355.088 51.488C356.795 47.0507 359.056 43.3813 361.872 40.48C364.688 37.5787 367.931 35.4027 371.6 33.952C375.269 32.5013 379.024 31.776 382.864 31.776C391.824 31.776 398.693 34.592 403.472 40.224C408.251 45.7707 410.64 54.2613 410.64 65.696C410.64 66.208 410.64 66.8907 410.64 67.744C410.64 68.512 410.597 69.2373 410.512 69.92H364.944C365.456 76.832 367.461 82.08 370.96 85.664C374.459 89.248 379.92 91.04 387.344 91.04C391.525 91.04 395.024 90.6987 397.84 90.016C400.741 89.248 402.917 88.5227 404.368 87.84L406.032 97.824C404.581 98.592 402.021 99.4027 398.352 100.256C394.768 101.109 390.672 101.536 386.064 101.536C380.261 101.536 375.227 100.683 370.96 98.976C366.779 97.184 363.323 94.752 360.592 91.68C357.861 88.608 355.813 84.9813 354.448 80.8C353.168 76.5333 352.528 71.8827 352.528 66.848ZM398.224 60.32C398.309 54.944 396.944 50.5493 394.128 47.136C391.397 43.6373 387.6 41.888 382.736 41.888C380.005 41.888 377.573 42.4427 375.44 43.552C373.392 44.576 371.643 45.9413 370.192 47.648C368.741 49.3547 367.589 51.3173 366.736 53.536C365.968 55.7547 365.456 58.016 365.2 60.32H398.224Z" fill="black"/>
</svg>
